<?xml version="1.0" encoding="UTF-8" standalone="no"?>
<svg width="12px" height="23px" viewBox="0 0 12 23" version="1.1" xmlns="http://www.w3.org/2000/svg" xmlns:xlink="http://www.w3.org/1999/xlink">
    <!-- Generator: Sketch 3.7.2 (28276) - http://www.bohemiancoding.com/sketch -->
    <title>arrow_left</title>
    <desc>Created with Sketch.</desc>
    <defs></defs>
    <g id="Original" stroke="none" stroke-width="1" fill="none" fill-rule="evenodd">
        <g id="05-INSPIRACION-COMO_ELEGIR" transform="translate(-1204.000000, -1839.000000)" fill="#808080">
            <g id="Front" transform="translate(0.000000, -2.000000)">
                <g id="Header" transform="translate(150.000000, 1823.000000)">
                    <path d="M1055.55503,29.2168036 L1065.81083,19.0848905 C1066.06306,18.8357065 1066.06306,18.4360719 1065.81083,18.186888 C1065.5586,17.937704 1065.15407,17.937704 1064.90184,18.186888 L1054.18917,28.7701531 C1053.93694,29.0193371 1053.93694,29.4189717 1054.18917,29.6681557 L1064.90184,40.2467193 C1065.02558,40.3689604 1065.19215,40.4347826 1065.35396,40.4347826 C1065.51576,40.4347826 1065.68233,40.373662 1065.80607,40.2467193 C1066.0583,39.9975353 1066.0583,39.5979007 1065.80607,39.3487167 L1055.55503,29.2168036 L1055.55503,29.2168036 Z" id="arrow_left" transform="translate(1060.000000, 29.217391) scale(-1, 1) rotate(-180.000000) translate(-1060.000000, -29.217391) "></path>
                </g>
            </g>
        </g>
    </g>
</svg>