<?xml version="1.0" encoding="UTF-8" standalone="no"?>
<svg width="47px" height="49px" viewBox="0 0 47 49" version="1.1" xmlns="http://www.w3.org/2000/svg" xmlns:xlink="http://www.w3.org/1999/xlink">
    <!-- Generator: Sketch 3.7.2 (28276) - http://www.bohemiancoding.com/sketch -->
    <title>calculadora</title>
    <desc>Created with Sketch.</desc>
    <defs></defs>
    <g id="Original" stroke="none" stroke-width="1" fill="none" fill-rule="evenodd">
        <g id="00-HOME" transform="translate(-879.000000, -684.000000)" fill="#FFFFFF">
            <g id="Presentación-Copy" transform="translate(832.000000, 668.000000)">
                <g id="Group-14" transform="translate(47.000000, 16.000000)">
                    <g id="calculadora">
                        <path d="M41.1644295,0 L5.83557047,0 C2.61780537,0 0,2.63488769 0,5.87365011 L0,43.1263499 C0,46.3651123 2.61780537,49 5.83557047,49 L41.1644295,49 C44.3821946,49 47,46.3651123 47,43.1263499 L47,5.87365011 C47,2.63488769 44.3821946,0 41.1644295,0 L41.1644295,0 L41.1644295,0 Z M45.4228188,43.1263499 C45.4228188,45.4897797 43.5125369,47.412527 41.1644295,47.412527 L5.83557047,47.412527 C3.48746309,47.412527 1.57718121,45.4897797 1.57718121,43.1263499 L1.57718121,5.87365011 C1.57718121,3.5102203 3.48746309,1.587473 5.83557047,1.587473 L41.1644295,1.587473 C43.5125369,1.587473 45.4228188,3.5102203 45.4228188,5.87365011 L45.4228188,43.1263499 L45.4228188,43.1263499 L45.4228188,43.1263499 Z" id="Shape"></path>
                        <path d="M13.4060403,33.0194384 L6.67673378,33.0194384 C5.31425951,33.0194384 4.20581655,34.1351145 4.20581655,35.5064795 L4.20581655,42.2796976 C4.20581655,43.6510626 5.31425951,44.7667387 6.67673378,44.7667387 L13.4060403,44.7667387 C14.7685145,44.7667387 15.8769575,43.6510626 15.8769575,42.2796976 L15.8769575,35.5064795 C15.8769575,34.1351145 14.7685145,33.0194384 13.4060403,33.0194384 L13.4060403,33.0194384 L13.4060403,33.0194384 Z M14.2997763,42.2796976 C14.2997763,42.77573 13.8988568,43.1792657 13.4060403,43.1792657 L6.67673378,43.1792657 C6.18391723,43.1792657 5.78299776,42.77573 5.78299776,42.2796976 L5.78299776,35.5064795 C5.78299776,35.0104471 6.18391723,34.6069114 6.67673378,34.6069114 L13.4060403,34.6069114 C13.8988568,34.6069114 14.2997763,35.0104471 14.2997763,35.5064795 L14.2997763,42.2796976 L14.2997763,42.2796976 L14.2997763,42.2796976 Z" id="Shape"></path>
                        <path d="M13.4060403,19.4730022 L6.67673378,19.4730022 C5.31425951,19.4730022 4.20581655,20.5886782 4.20581655,21.9600432 L4.20581655,28.7332613 C4.20581655,30.1046263 5.31425951,31.2203024 6.67673378,31.2203024 L13.4060403,31.2203024 C14.7685145,31.2203024 15.8769575,30.1046263 15.8769575,28.7332613 L15.8769575,21.9600432 C15.8769575,20.5886782 14.7685145,19.4730022 13.4060403,19.4730022 L13.4060403,19.4730022 L13.4060403,19.4730022 Z M14.2997763,28.7332613 C14.2997763,29.2292937 13.8988568,29.6328294 13.4060403,29.6328294 L6.67673378,29.6328294 C6.18391723,29.6328294 5.78299776,29.2292937 5.78299776,28.7332613 L5.78299776,21.9600432 C5.78299776,21.4640108 6.18391723,21.0604752 6.67673378,21.0604752 L13.4060403,21.0604752 C13.8988568,21.0604752 14.2997763,21.4640108 14.2997763,21.9600432 L14.2997763,28.7332613 L14.2997763,28.7332613 L14.2997763,28.7332613 Z" id="Shape"></path>
                        <path d="M26.8646532,33.0194384 L20.1353468,33.0194384 C18.7728725,33.0194384 17.6644295,34.1351145 17.6644295,35.5064795 L17.6644295,42.2796976 C17.6644295,43.6510626 18.7728725,44.7667387 20.1353468,44.7667387 L26.8646532,44.7667387 C28.2271275,44.7667387 29.3355705,43.6510626 29.3355705,42.2796976 L29.3355705,35.5064795 C29.3355705,34.1351145 28.2271275,33.0194384 26.8646532,33.0194384 L26.8646532,33.0194384 L26.8646532,33.0194384 Z M27.7583893,42.2796976 C27.7583893,42.77573 27.3574698,43.1792657 26.8646532,43.1792657 L20.1353468,43.1792657 C19.6425302,43.1792657 19.2416107,42.77573 19.2416107,42.2796976 L19.2416107,35.5064795 C19.2416107,35.0104471 19.6425302,34.6069114 20.1353468,34.6069114 L26.8646532,34.6069114 C27.3574698,34.6069114 27.7583893,35.0104471 27.7583893,35.5064795 L27.7583893,42.2796976 L27.7583893,42.2796976 L27.7583893,42.2796976 Z" id="Shape"></path>
                        <path d="M26.8646532,19.4730022 L20.1353468,19.4730022 C18.7728725,19.4730022 17.6644295,20.5886782 17.6644295,21.9600432 L17.6644295,28.7332613 C17.6644295,30.1046263 18.7728725,31.2203024 20.1353468,31.2203024 L26.8646532,31.2203024 C28.2271275,31.2203024 29.3355705,30.1046263 29.3355705,28.7332613 L29.3355705,21.9600432 C29.3355705,20.5886782 28.2271275,19.4730022 26.8646532,19.4730022 L26.8646532,19.4730022 L26.8646532,19.4730022 Z M27.7583893,28.7332613 C27.7583893,29.2292937 27.3574698,29.6328294 26.8646532,29.6328294 L20.1353468,29.6328294 C19.6425302,29.6328294 19.2416107,29.2292937 19.2416107,28.7332613 L19.2416107,21.9600432 C19.2416107,21.4640108 19.6425302,21.0604752 20.1353468,21.0604752 L26.8646532,21.0604752 C27.3574698,21.0604752 27.7583893,21.4640108 27.7583893,21.9600432 L27.7583893,28.7332613 L27.7583893,28.7332613 L27.7583893,28.7332613 Z" id="Shape"></path>
                        <path d="M40.3232662,19.4730022 L33.5939597,19.4730022 C32.2314855,19.4730022 31.1230425,20.5886782 31.1230425,21.9600432 L31.1230425,42.2796976 C31.1230425,43.6510626 32.2314855,44.7667387 33.5939597,44.7667387 L40.3232662,44.7667387 C41.6857405,44.7667387 42.7941834,43.6510626 42.7941834,42.2796976 L42.7941834,21.9600432 C42.7941834,20.5886782 41.6857405,19.4730022 40.3232662,19.4730022 L40.3232662,19.4730022 L40.3232662,19.4730022 Z M41.2170022,42.2796976 C41.2170022,42.77573 40.8160828,43.1792657 40.3232662,43.1792657 L33.5939597,43.1792657 C33.1011432,43.1792657 32.7002237,42.77573 32.7002237,42.2796976 L32.7002237,21.9600432 C32.7002237,21.4640108 33.1011432,21.0604752 33.5939597,21.0604752 L40.3232662,21.0604752 C40.8160828,21.0604752 41.2170022,21.4640108 41.2170022,21.9600432 L41.2170022,42.2796976 L41.2170022,42.2796976 L41.2170022,42.2796976 Z" id="Shape"></path>
                        <path d="M40.3232662,4.23326134 L6.67673378,4.23326134 C5.31425951,4.23326134 4.20581655,5.34893737 4.20581655,6.72030238 L4.20581655,15.1868251 C4.20581655,16.5581901 5.31425951,17.6738661 6.67673378,17.6738661 L40.3232662,17.6738661 C41.6857405,17.6738661 42.7941834,16.5581901 42.7941834,15.1868251 L42.7941834,6.72030238 C42.7941834,5.34893737 41.6857405,4.23326134 40.3232662,4.23326134 L40.3232662,4.23326134 L40.3232662,4.23326134 Z M41.2170022,15.1868251 C41.2170022,15.6828575 40.8160828,16.0863931 40.3232662,16.0863931 L6.67673378,16.0863931 C6.18391723,16.0863931 5.78299776,15.6828575 5.78299776,15.1868251 L5.78299776,6.72030238 C5.78299776,6.22426998 6.18391723,5.82073434 6.67673378,5.82073434 L40.3232662,5.82073434 C40.8160828,5.82073434 41.2170022,6.22426998 41.2170022,6.72030238 L41.2170022,15.1868251 L41.2170022,15.1868251 L41.2170022,15.1868251 Z" id="Shape"></path>
                        <path d="M11.7237136,24.5529158 L10.8299776,24.5529158 L10.8299776,23.6533477 C10.8299776,23.2149935 10.4768993,22.8596112 10.041387,22.8596112 C9.60587472,22.8596112 9.25279642,23.2149935 9.25279642,23.6533477 L9.25279642,24.5529158 L8.3590604,24.5529158 C7.9235481,24.5529158 7.5704698,24.9082981 7.5704698,25.3466523 C7.5704698,25.7850065 7.9235481,26.1403888 8.3590604,26.1403888 L9.25279642,26.1403888 L9.25279642,27.0399568 C9.25279642,27.478311 9.60587472,27.8336933 10.041387,27.8336933 C10.4768993,27.8336933 10.8299776,27.478311 10.8299776,27.0399568 L10.8299776,26.1403888 L11.7237136,26.1403888 C12.159226,26.1403888 12.5123043,25.7850065 12.5123043,25.3466523 C12.5123043,24.9082981 12.159226,24.5529158 11.7237136,24.5529158 L11.7237136,24.5529158 Z" id="Shape"></path>
                        <path d="M25.1823266,24.5529158 L21.8176734,24.5529158 C21.3821611,24.5529158 21.0290828,24.9082981 21.0290828,25.3466523 C21.0290828,25.7850065 21.3821611,26.1403888 21.8176734,26.1403888 L25.1823266,26.1403888 C25.6178389,26.1403888 25.9709172,25.7850065 25.9709172,25.3466523 C25.9709172,24.9082981 25.6178389,24.5529158 25.1823266,24.5529158 L25.1823266,24.5529158 Z" id="Shape"></path>
                        <path d="M25.1823266,38.0993521 L21.8176734,38.0993521 C21.3821611,38.0993521 21.0290828,38.4547343 21.0290828,38.8930886 C21.0290828,39.3314428 21.3821611,39.6868251 21.8176734,39.6868251 L25.1823266,39.6868251 C25.6178389,39.6868251 25.9709172,39.3314428 25.9709172,38.8930886 C25.9709172,38.4547343 25.6178389,38.0993521 25.1823266,38.0993521 L25.1823266,38.0993521 Z" id="Shape"></path>
                        <path d="M23.5,37.1468683 C23.7071365,37.1468683 23.9111186,37.062203 24.0572707,36.9140389 C24.2044743,36.766933 24.2885906,36.5616199 24.2885906,36.3531317 C24.2885906,36.1446436 24.2044743,35.9393305 24.0572707,35.7922246 C23.9111186,35.6440605 23.7071365,35.5593952 23.5,35.5593952 C23.2928635,35.5593952 23.0888814,35.6440605 22.9427293,35.7922246 C22.7955257,35.9393305 22.7114094,36.1435853 22.7114094,36.3531317 C22.7114094,36.5626782 22.7955257,36.766933 22.9427293,36.9140389 C23.0888814,37.062203 23.2928635,37.1468683 23.5,37.1468683 L23.5,37.1468683 Z" id="Shape"></path>
                        <path d="M23.5,40.6393089 C23.2928635,40.6393089 23.0888814,40.7239741 22.9427293,40.8721382 C22.7955257,41.0192441 22.7114094,41.2245572 22.7114094,41.4330454 C22.7114094,41.6415335 22.7955257,41.8468467 22.9427293,41.9939525 C23.0888814,42.1421166 23.2928635,42.2267819 23.5,42.2267819 C23.7081879,42.2267819 23.9111186,42.1421166 24.0572707,41.9939525 C24.2044743,41.8457883 24.2885906,41.6415335 24.2885906,41.4330454 C24.2885906,41.2245572 24.2044743,41.0192441 24.0572707,40.8721382 C23.9111186,40.7239741 23.7081879,40.6393089 23.5,40.6393089 L23.5,40.6393089 Z" id="Shape"></path>
                        <path d="M38.6409396,33.0194384 L35.2762864,33.0194384 C34.840774,33.0194384 34.4876957,33.3748207 34.4876957,33.8131749 C34.4876957,34.2515292 34.840774,34.6069114 35.2762864,34.6069114 L38.6409396,34.6069114 C39.0764519,34.6069114 39.4295302,34.2515292 39.4295302,33.8131749 C39.4295302,33.3748207 39.0764519,33.0194384 38.6409396,33.0194384 L38.6409396,33.0194384 Z" id="Shape"></path>
                        <path d="M38.6409396,29.6328294 L35.2762864,29.6328294 C34.840774,29.6328294 34.4876957,29.9882117 34.4876957,30.4265659 C34.4876957,30.8649201 34.840774,31.2203024 35.2762864,31.2203024 L38.6409396,31.2203024 C39.0764519,31.2203024 39.4295302,30.8649201 39.4295302,30.4265659 C39.4295302,29.9882117 39.0764519,29.6328294 38.6409396,29.6328294 L38.6409396,29.6328294 Z" id="Shape"></path>
                        <path d="M12.2812998,36.6385594 C11.9733289,36.3285788 11.4739933,36.3285788 11.1661275,36.6385594 L10.041387,37.7706393 L8.91664653,36.6385594 C8.60867562,36.3285788 8.10934004,36.3285788 7.80147427,36.6385594 C7.49350336,36.94854 7.49350336,37.4511339 7.80147427,37.7610086 L8.92621477,38.8930886 L7.80147427,40.0251685 C7.49350336,40.335149 7.49350336,40.837743 7.80147427,41.1476177 C7.95540716,41.3026609 8.15728635,41.3801296 8.3590604,41.3801296 C8.56083445,41.3801296 8.76271365,41.3026609 8.91664653,41.1476177 L10.041387,40.0155378 L11.1661275,41.1476177 C11.3200604,41.3025551 11.5219396,41.3801296 11.7237136,41.3801296 C11.9254877,41.3801296 12.1273669,41.3026609 12.2812998,41.1476177 C12.5892707,40.8376371 12.5892707,40.3350432 12.2812998,40.0251685 L11.1565593,38.8930886 L12.2812998,37.7610086 C12.5892707,37.4511339 12.5892707,36.9484341 12.2812998,36.6385594 L12.2812998,36.6385594 Z" id="Shape"></path>
                    </g>
                </g>
            </g>
        </g>
    </g>
</svg>