<?xml version="1.0" encoding="UTF-8" standalone="no"?>
<svg width="26px" height="26px" viewBox="0 0 26 26" version="1.1" xmlns="http://www.w3.org/2000/svg" xmlns:xlink="http://www.w3.org/1999/xlink">
    <!-- Generator: Sketch 3.7.2 (28276) - http://www.bohemiancoding.com/sketch -->
    <title>consejo</title>
    <desc>Created with Sketch.</desc>
    <defs></defs>
    <g id="Original" stroke="none" stroke-width="1" fill="none" fill-rule="evenodd">
        <g id="00-HOME" transform="translate(-911.000000, -37.000000)" fill="#515048">
            <g id="menu_consejos" transform="translate(911.000000, 37.000000)">
                <g id="consejo">
                    <g id="Capa_1">
                        <g id="Group">
                            <path d="M15.0826077,7.93743931 L3.6020354,7.93743931 C3.28428319,7.93743931 3.02681416,7.68517919 3.02681416,7.37385549 C3.02681416,7.06253179 3.28428319,6.81027168 3.6020354,6.81027168 L15.0826077,6.81027168 C15.4002832,6.81027168 15.6578289,7.06253179 15.6578289,7.37385549 C15.6578289,7.68517919 15.4002832,7.93743931 15.0826077,7.93743931 L15.0826077,7.93743931 Z" id="Shape"></path>
                            <path d="M12.3421003,10.4635723 L3.6020354,10.4635723 C3.28428319,10.4635723 3.02681416,10.2113121 3.02681416,9.89998844 C3.02681416,9.58866474 3.28428319,9.33640462 3.6020354,9.33640462 L12.3421003,9.33640462 C12.6597758,9.33640462 12.9173215,9.58866474 12.9173215,9.89998844 C12.9173215,10.2113121 12.6596991,10.4635723 12.3421003,10.4635723 L12.3421003,10.4635723 Z" id="Shape"></path>
                            <path d="M6.49478466,18.041896 L3.6020354,18.041896 C3.28428319,18.041896 3.02681416,17.7896358 3.02681416,17.4783121 C3.02681416,17.1669884 3.28428319,16.9147283 3.6020354,16.9147283 L6.49478466,16.9147283 C6.81246018,16.9147283 7.0700059,17.1669884 7.0700059,17.4783121 C7.0700059,17.7895607 6.81238348,18.041896 6.49478466,18.041896 L6.49478466,18.041896 Z" id="Shape"></path>
                            <path d="M5.24080236,20.5680289 L3.6020354,20.5680289 C3.28428319,20.5680289 3.02681416,20.3157688 3.02681416,20.0044451 C3.02681416,19.6931214 3.28428319,19.4408613 3.6020354,19.4408613 L5.24080236,19.4408613 C5.55847788,19.4408613 5.8160236,19.6931214 5.8160236,20.0044451 C5.8160236,20.3156936 5.55847788,20.5680289 5.24080236,20.5680289 L5.24080236,20.5680289 Z" id="Shape"></path>
                            <path d="M25.3407198,2.6136763 L24.0286018,1.6550578 C23.6981947,1.41369364 23.2919351,1.31254913 22.8840649,1.37108671 C22.4763481,1.4293237 22.1161829,1.63957803 21.8699115,1.96322543 C21.8697581,1.96337572 21.8696047,1.96360116 21.869528,1.96375145 L18.616767,6.2830578 L18.616767,1.99350867 C18.616767,1.68218497 18.3592979,1.42992486 18.0415457,1.42992486 L15.6578289,1.42992486 L15.6578289,0.563583815 C15.6578289,0.252260116 15.4002832,0 15.0826077,0 C14.7648555,0 14.5073864,0.252260116 14.5073864,0.563583815 L14.5073864,1.42992486 L12.7875516,1.42992486 L12.7875516,0.563583815 C12.7875516,0.252260116 12.5300826,0 12.2123304,0 C11.8946549,0 11.6371091,0.252260116 11.6371091,0.563583815 L11.6371091,1.42992486 L9.91742773,1.42992486 L9.91742773,0.563583815 C9.91742773,0.252260116 9.6599587,0 9.34220649,0 C9.02445428,0 8.76698525,0.252260116 8.76698525,0.563583815 L8.76698525,1.42992486 L7.04738053,1.42992486 L7.04738053,0.563583815 C7.04738053,0.252260116 6.78983481,0 6.47215929,0 C6.15440708,0 5.89693805,0.252260116 5.89693805,0.563583815 L5.89693805,1.42992486 L4.17725664,1.42992486 L4.17725664,0.563583815 C4.17725664,0.252260116 3.91971091,0 3.6020354,0 C3.28428319,0 3.02681416,0.252260116 3.02681416,0.563583815 L3.02681416,1.42992486 L0.642943953,1.42992486 C0.325268437,1.42992486 0.0677227139,1.68218497 0.0677227139,1.99350867 L0.0677227139,25.389 C0.0677227139,25.7003237 0.325268437,25.9525838 0.642943953,25.9525838 L18.0416224,25.9525838 C18.3593746,25.9525838 18.6168437,25.7003237 18.6168437,25.389 L18.6168437,14.1375376 L25.6550206,4.72914451 C25.6550973,4.72899422 25.6552507,4.72891908 25.6554041,4.72876879 C26.1636696,4.06065896 26.0226254,3.11188439 25.3407198,2.6136763 L25.3407198,2.6136763 Z M17.4663245,24.8254162 L1.21816519,24.8254162 L1.21816519,2.55709249 L3.02681416,2.55709249 L3.02681416,3.42328324 C3.02681416,3.73460694 3.28428319,3.98686705 3.6020354,3.98686705 C3.91971091,3.98686705 4.17725664,3.73460694 4.17725664,3.42328324 L4.17725664,2.55709249 L5.89693805,2.55709249 L5.89693805,3.42328324 C5.89693805,3.73460694 6.15440708,3.98686705 6.47215929,3.98686705 C6.78983481,3.98686705 7.04738053,3.73460694 7.04738053,3.42328324 L7.04738053,2.55709249 L8.76706195,2.55709249 L8.76706195,3.42328324 C8.76706195,3.73460694 9.02453097,3.98686705 9.34228319,3.98686705 C9.6600354,3.98686705 9.91750442,3.73460694 9.91750442,3.42328324 L9.91750442,2.55709249 L11.6371858,2.55709249 L11.6371858,3.42328324 C11.6371858,3.73460694 11.8947316,3.98686705 12.2124071,3.98686705 C12.5301593,3.98686705 12.7876283,3.73460694 12.7876283,3.42328324 L12.7876283,2.55709249 L14.5074631,2.55709249 L14.5074631,3.42328324 C14.5074631,3.73460694 14.7649322,3.98686705 15.0826844,3.98686705 C15.4003599,3.98686705 15.6579056,3.73460694 15.6579056,3.42328324 L15.6579056,2.55709249 L17.4664012,2.55709249 L17.4664012,7.82968208 L14.4665841,11.8625376 L3.6020354,11.8625376 C3.28428319,11.8625376 3.02681416,12.1147977 3.02681416,12.4261214 C3.02681416,12.7374451 3.28428319,12.9897052 3.6020354,12.9897052 L13.6281416,12.9897052 C13.6281416,12.9897052 10.3576637,17.3866358 10.3570501,17.3875376 L10.3573569,17.3875376 C10.320236,17.4381098 10.2906313,17.4951445 10.2718407,17.5582659 L8.95650147,21.9669191 L3.6020354,21.9669191 C3.28428319,21.9669191 3.02681416,22.2191792 3.02681416,22.5305029 C3.02681416,22.8418266 3.28428319,23.0940867 3.6020354,23.0940867 C3.6020354,23.0940867 9.39374631,23.0936358 9.39681416,23.0936358 C9.39681416,23.0935607 9.39673746,23.0934855 9.39666077,23.0934855 C9.5019646,23.0918324 9.60711504,23.0624509 9.69968732,23.0038382 L13.9991976,20.2814277 C14.0583304,20.2440058 14.1074926,20.197341 14.1473746,20.1451908 C14.1487552,20.1433873 17.4664012,15.6840867 17.4664012,15.6840867 L17.4664012,24.8254162 L17.4663245,24.8254162 Z M11.143646,18.6531214 L12.67941,19.7751792 L10.373233,21.2353873 L11.143646,18.6531214 L11.143646,18.6531214 Z M13.5645605,19.0158439 L11.623764,17.5979422 L20.696,5.40161272 L22.6367965,6.81951445 L13.5645605,19.0158439 L13.5645605,19.0158439 Z M23.319469,5.91221965 L21.3785959,4.49431792 L21.9979941,3.68050289 L23.9387906,5.09855491 L23.319469,5.91221965 L23.319469,5.91221965 Z M24.7329794,4.05494798 C24.732826,4.05509827 24.7326726,4.0553237 24.7325959,4.05547399 L24.6264484,4.19486705 L22.6856519,2.77681503 L22.7917227,2.63749711 C22.7918761,2.63734682 22.7920295,2.63719653 22.7921829,2.63704624 C22.854767,2.55476301 22.9463422,2.50126012 23.0499587,2.48645665 C23.1537286,2.47172832 23.2568083,2.49742775 23.3407139,2.55867052 L24.6529086,3.51728902 C24.8263186,3.64390751 24.8622124,3.88512139 24.7329794,4.05494798 L24.7329794,4.05494798 Z" id="Shape"></path>
                        </g>
                    </g>
                </g>
            </g>
        </g>
    </g>
</svg>