<?xml version="1.0" encoding="UTF-8" standalone="no"?>
<svg width="25px" height="24px" viewBox="0 0 25 24" version="1.1" xmlns="http://www.w3.org/2000/svg" xmlns:xlink="http://www.w3.org/1999/xlink">
    <!-- Generator: Sketch 3.8.3 (29802) - http://www.bohemiancoding.com/sketch -->
    <title>Combined Shape</title>
    <desc>Created with Sketch.</desc>
    <defs></defs>
    <g id="Original" stroke="none" stroke-width="1" fill="none" fill-rule="evenodd">
        <g id="05-INSPIRACION-COMO_ELEGIR" transform="translate(-167.000000, -1840.000000)" fill="#808080">
            <g id="Front" transform="translate(0.000000, -2.000000)">
                <g id="menu" transform="translate(162.000000, 1838.000000)">
                    <g id="Group-15" transform="translate(0.000000, 4.000000)">
                        <path d="M17.5,13.4142136 L7.42039296,23.4938206 C6.93433043,23.9798831 6.22306105,24.0575848 5.83273811,23.6672619 C5.44241517,23.2769389 5.52011686,22.5656696 6.0061794,22.079607 L16.0857864,12 L6.0061794,1.92039296 C5.52011686,1.43433043 5.44241517,0.723061054 5.83273811,0.33273811 C6.22306105,-0.0575848328 6.93433043,0.0201168633 7.42039296,0.506179396 L17.5,10.5857864 L27.579607,0.506179396 C28.0656696,0.0201168633 28.7769389,-0.0575848328 29.1672619,0.33273811 C29.5575848,0.723061054 29.4798831,1.43433043 28.9938206,1.92039296 L18.9142136,12 L28.9938206,22.079607 C29.4798831,22.5656696 29.5575848,23.2769389 29.1672619,23.6672619 C28.7769389,24.0575848 28.0656696,23.9798831 27.579607,23.4938206 L17.5,13.4142136 Z" id="Combined-Shape"></path>
                    </g>
                </g>
            </g>
        </g>
    </g>
</svg>