<?xml version="1.0" encoding="UTF-8" standalone="no"?>
<svg width="33px" height="32px" viewBox="0 0 33 32" version="1.1" xmlns="http://www.w3.org/2000/svg" xmlns:xlink="http://www.w3.org/1999/xlink">
    <!-- Generator: Sketch 3.7.2 (28276) - http://www.bohemiancoding.com/sketch -->
    <title>entonadores</title>
    <desc>Created with Sketch.</desc>
    <defs></defs>
    <g id="Original" stroke="none" stroke-width="1" fill="none" fill-rule="evenodd">
        <g id="01-PRODUCTOS" transform="translate(-204.000000, -1465.000000)" fill="#8B8B8B">
            <g id="Front" transform="translate(0.000000, -1055.000000)">
                <g id="entonadores" transform="translate(204.000000, 2520.000000)">
                    <g id="Capa_1">
                        <path d="M32.7668742,10.4345839 L22.3427209,0.20084472 C22.2288405,0.0889440994 22.0743681,0.026136646 21.913316,0.026136646 C21.7521626,0.026136646 21.5977914,0.0889440994 21.4838098,0.20084472 L19.7579908,1.89525466 C19.520816,2.12809938 19.520816,2.50563975 19.7579908,2.73838509 L19.8083006,2.7877764 L15.1570215,7.80313043 L15.1569202,7.80322981 C15.156819,7.80332919 15.1567178,7.80352795 15.1566166,7.80362733 L9.3603589,14.0535652 C9.35428528,14.0590311 9.34750307,14.0628075 9.3416319,14.068472 C9.32594172,14.0839752 9.31399693,14.1014658 9.30033129,14.1181615 L2.77017791,21.1594534 C2.6032546,21.339528 2.56448466,21.6011925 2.67249387,21.8204224 L3.79834049,24.106236 L3.11556442,24.7765466 L2.74396012,24.4121242 C2.50850613,24.1813665 2.1273865,24.1794783 1.88980675,24.4080497 L0.182411043,26.0499876 C0.066506135,26.1613913 0.000809815951,26.3137391 8.02504442e-14,26.4730435 C-0.000809815951,26.6323478 0.0633680982,26.7852919 0.178159509,26.8977888 L5.12107362,31.7452919 C5.23961043,31.8614658 5.39489264,31.9197019 5.55027607,31.9197019 C5.7037362,31.9197019 5.85719632,31.8630559 5.97532822,31.7493665 L7.68242025,30.1074286 C7.79832515,29.9960248 7.86402147,29.843677 7.86483129,29.6843727 C7.8656411,29.5250683 7.80146319,29.3721242 7.68667178,29.259528 L7.34462577,28.9240248 L8.02659202,28.2545093 L10.3713129,29.3712298 C10.5906718,29.475677 10.8523436,29.4412919 11.0359693,29.2837764 L30.1231288,12.9143851 L30.1818405,12.9720248 C30.2958221,13.0839255 30.4501933,13.1467329 30.6113466,13.1467329 C30.7723988,13.1467329 30.9268712,13.0839255 31.0407515,12.9720248 L32.766773,11.2775155 C32.8807546,11.1657143 32.9447301,11.0140621 32.9447301,10.8559503 C32.9448313,10.6979379 32.8808558,10.5463851 32.7668742,10.4345839 L32.7668742,10.4345839 Z M18.0060552,21.7230311 L10.6138528,14.4732422 L15.6078865,9.08829814 L23.599454,16.925913 L18.0060552,21.7230311 L18.0060552,21.7230311 Z M5.55442638,30.4847702 L1.47092945,26.4800994 L2.31060736,25.672646 L6.39390184,29.6774161 L5.55442638,30.4847702 L5.55442638,30.4847702 Z M3.97508282,25.6193789 L4.53334969,25.071205 L7.04377914,27.533118 L6.48541104,28.0813913 L3.97508282,25.6193789 L3.97508282,25.6193789 Z M10.5398558,28.1262112 L8.25981902,27.0402981 L5.03503067,23.8776646 L3.94481595,21.6641988 L9.79512883,15.3560248 L17.0890399,22.5094161 L10.5398558,28.1262112 L10.5398558,28.1262112 Z M24.5162669,16.1396273 L16.4265092,8.20551553 L20.663365,3.63696894 L29.2617883,12.0696646 L24.5162669,16.1396273 L24.5162669,16.1396273 Z M30.6114479,11.7074286 L21.046408,2.31681988 L21.913316,1.46563975 L31.4785583,10.8561491 L30.6114479,11.7074286 L30.6114479,11.7074286 Z" id="Shape"></path>
                    </g>
                </g>
            </g>
        </g>
    </g>
</svg>