<?xml version="1.0" encoding="UTF-8" standalone="no"?>
<svg width="24px" height="24px" viewBox="0 0 24 24" version="1.1" xmlns="http://www.w3.org/2000/svg" xmlns:xlink="http://www.w3.org/1999/xlink">
    <!-- Generator: Sketch 3.7.2 (28276) - http://www.bohemiancoding.com/sketch -->
    <title>inspiracion</title>
    <desc>Created with Sketch.</desc>
    <defs></defs>
    <g id="Original" stroke="none" stroke-width="1" fill="none" fill-rule="evenodd">
        <g id="00-HOME" transform="translate(-727.000000, -37.000000)" fill="#4A4A4A">
            <g id="menu_inspiracion" transform="translate(727.000000, 37.000000)">
                <g id="inspiracion">
                    <path d="M23.6792453,17.8021132 C23.7826415,17.4759245 23.7918491,17.1266415 23.7012075,16.7880755 L22.834566,13.5495849 C22.7636226,13.2846792 22.6350943,13.0456604 22.4622642,12.8430189 C22.4472453,12.5740377 22.3724528,12.3114717 22.2404528,12.0715472 L20.6243774,9.13426415 C20.3821887,8.69411321 19.9828679,8.39418868 19.5342642,8.26566038 C19.5300377,7.79101887 19.3397736,7.32739623 18.9856604,6.98264151 L16.5835472,4.64407547 C16.2775094,4.34611321 15.8864151,4.16928302 15.465283,4.13577358 C15.3070943,3.75049057 15.0197736,3.42626415 14.6428679,3.22475472 L11.6861887,1.64445283 C11.2587925,1.416 10.7680755,1.36762264 10.3042264,1.50830189 C9.84045283,1.64898113 9.45924528,1.96181132 9.23079245,2.38920755 L1.41969811,17.0027925 C1.33645283,17.0213585 1.25532075,17.045434 1.17683019,17.0750189 L1.17116981,1.83766038 C1.17109434,1.46143396 1.4770566,1.15532075 1.85328302,1.15524528 L5.20573585,1.15418868 L5.20588679,1.15418868 C5.58196226,1.15418868 5.88807547,1.46015094 5.88815094,1.8365283 L5.89018868,4.69622642 C5.89041509,5.00875472 6.14377358,5.26188679 6.45622642,5.26188679 L6.45660377,5.26188679 C6.76920755,5.26166038 7.02249057,5.00807547 7.02226415,4.6954717 L7.02022642,1.83607547 C7.02015094,1.3514717 6.83124528,0.895849057 6.48845283,0.553283019 C6.14581132,0.210792453 5.69033962,0.0222641509 5.20588679,0.0222641509 L5.20535849,0.0222641509 L1.85290566,0.0233207547 C1.36830189,0.023245283 0.912754717,0.212075472 0.570113208,0.554867925 C0.22754717,0.897660377 0.0389433962,1.35328302 0.0390943396,1.83796226 L0.0452075472,18.3724528 C0.0159245283,18.5015849 0,18.6356226 0,18.7733585 L0,22.1258113 C0,23.1262642 0.813886792,23.9401509 1.81433962,23.9401509 L22.1479245,23.9401509 C23.1483019,23.9401509 23.9622642,23.1262642 23.9622642,22.1258113 L23.9622642,18.7733585 C23.9622642,18.4162264 23.8581132,18.0831698 23.6792453,17.8021132 L23.6792453,17.8021132 Z M21.0217358,12.2051321 C20.8851321,12.2099623 20.7481509,12.2298113 20.6128302,12.2659623 L8.25901887,15.5720755 C7.9570566,15.6529057 7.77773585,15.9632453 7.85856604,16.2652075 C7.93932075,16.5672453 8.24973585,16.7463396 8.55169811,16.6656604 L20.9055094,13.3596226 C21.0815849,13.3124528 21.265434,13.3367547 21.4231698,13.4279245 C21.461283,13.4499623 21.4966038,13.4753208 21.5291321,13.5034717 C21.5306415,13.5046792 21.5320755,13.5058868 21.5335849,13.5071698 C21.6336604,13.5951698 21.7056604,13.7106415 21.7409057,13.8422642 L22.5895849,17.0136604 C22.4481509,16.9781132 22.3002264,16.9590189 22.1479245,16.9590189 L4.98686792,16.9590189 L18.7058113,9.41109434 C19.0355472,9.22981132 19.4511698,9.35041509 19.6324528,9.68 L21.0217358,12.2051321 L21.0217358,12.2051321 Z M18.1958491,7.79381132 C18.3372075,7.93139623 18.408,8.11932075 18.4006792,8.3090566 C18.3190943,8.33954717 18.2386415,8.376 18.1601509,8.41924528 L4.79954717,15.7700377 L14.8290566,5.46815094 C14.9561509,5.33758491 15.1264906,5.26430189 15.3086792,5.26188679 C15.4924528,5.25864151 15.6631698,5.32807547 15.7937358,5.45524528 L18.1958491,7.79381132 L18.1958491,7.79381132 Z M10.2292075,2.9229434 C10.3150943,2.76218868 10.4584906,2.64460377 10.6329057,2.59162264 C10.8073208,2.53879245 10.9918491,2.55690566 11.1525283,2.64279245 L14.1091321,4.22309434 C14.1995472,4.27139623 14.2753962,4.33916981 14.334566,4.41909434 C14.2209811,4.49267925 14.1146415,4.57901887 14.0178868,4.67841509 L3.53607547,15.4449057 L10.2292075,2.9229434 L10.2292075,2.9229434 Z M22.8301887,22.1258113 C22.8301887,22.5020377 22.5241509,22.8080755 22.1479245,22.8080755 L1.81433962,22.8080755 C1.43818868,22.8080755 1.13207547,22.5020377 1.13207547,22.1258113 L1.13207547,18.7733585 C1.13207547,18.4084528 1.42030189,18.1104151 1.78090566,18.0928302 L1.78098113,18.0928302 L1.78143396,18.0928302 C1.79237736,18.0923019 1.80316981,18.0911698 1.81426415,18.0911698 L22.1479245,18.0911698 C22.5240755,18.0911698 22.8301887,18.3972075 22.8301887,18.773434 L22.8301887,22.1258113 L22.8301887,22.1258113 Z" id="Shape"></path>
                    <path d="M21.1320755,18.3112453 L18.9307925,18.3112453 C18.6181887,18.3112453 18.3647547,18.5646792 18.3647547,18.877283 L18.3647547,22.0219623 C18.3647547,22.334566 18.6181887,22.588 18.9307925,22.588 L21.1320755,22.588 C21.4446792,22.588 21.6981132,22.334566 21.6981132,22.0219623 C21.6981132,21.7093585 21.4446792,21.4559245 21.1320755,21.4559245 L19.4968302,21.4559245 L19.4968302,19.4433208 L20.5660377,19.4433208 L20.5660377,20.0188679 C20.5660377,20.3314717 20.8194717,20.5849057 21.1320755,20.5849057 C21.4446792,20.5849057 21.6981132,20.3314717 21.6981132,20.0188679 L21.6981132,18.877283 C21.6981132,18.5646792 21.4446792,18.3112453 21.1320755,18.3112453 L21.1320755,18.3112453 Z" id="Shape"></path>
                    <path d="M17.2326792,18.3112453 L15.0313962,18.3112453 C14.7187925,18.3112453 14.4653585,18.5646792 14.4653585,18.877283 L14.4653585,22.0219623 C14.4653585,22.334566 14.7187925,22.588 15.0313962,22.588 L17.2326792,22.588 C17.545283,22.588 17.798717,22.334566 17.798717,22.0219623 L17.798717,18.877283 C17.798717,18.5646792 17.5453585,18.3112453 17.2326792,18.3112453 L17.2326792,18.3112453 Z M16.6666415,21.4559245 L15.597434,21.4559245 L15.597434,19.4433208 L16.6666415,19.4433208 L16.6666415,21.4559245 L16.6666415,21.4559245 Z" id="Shape"></path>
                    <path d="M11.1320755,18.3112453 C10.8194717,18.3112453 10.5660377,18.5646792 10.5660377,18.877283 L10.5660377,22.0219623 C10.5660377,22.334566 10.8194717,22.588 11.1320755,22.588 L13.3333585,22.588 C13.6459623,22.588 13.8993962,22.334566 13.8993962,22.0219623 L13.8993962,18.877283 C13.8993962,18.5646792 13.6459623,18.3112453 13.3333585,18.3112453 L11.1320755,18.3112453 Z M12.7673208,21.4559245 L11.6981132,21.4559245 L11.6981132,19.4433208 L12.7673208,19.4433208 L12.7673208,21.4559245 L12.7673208,21.4559245 Z" id="Shape"></path>
                    <path d="M3.53524528,18.8661887 C3.22264151,18.8661887 2.96920755,19.1196226 2.96920755,19.4322264 C2.96920755,19.7448302 3.22264151,19.9982642 3.53524528,19.9982642 C3.78407547,19.9982642 3.98656604,20.2007547 3.98656604,20.4495849 C3.98656604,20.6984151 3.78407547,20.9009057 3.53524528,20.9009057 C3.28641509,20.9009057 3.08392453,20.6984151 3.08392453,20.4495849 C3.08392453,20.1369811 2.83049057,19.8835472 2.51788679,19.8835472 C2.20528302,19.8835472 1.95184906,20.1369811 1.95184906,20.4495849 C1.95184906,21.3226415 2.66218868,22.0329811 3.53524528,22.0329811 C4.40830189,22.0329811 5.11864151,21.3226415 5.11864151,20.4495849 C5.11864151,19.5765283 4.40830189,18.8661887 3.53524528,18.8661887 L3.53524528,18.8661887 Z" id="Shape"></path>
                </g>
            </g>
        </g>
    </g>
</svg>