<?xml version="1.0" encoding="UTF-8" standalone="no"?>
<svg width="33px" height="22px" viewBox="0 0 33 22" version="1.1" xmlns="http://www.w3.org/2000/svg" xmlns:xlink="http://www.w3.org/1999/xlink">
    <!-- Generator: Sketch 3.7.2 (28276) - http://www.bohemiancoding.com/sketch -->
    <title>menu</title>
    <desc>Created with Sketch.</desc>
    <defs></defs>
    <g id="Original" stroke="none" stroke-width="1" fill="none" fill-rule="evenodd">
        <g id="01-PRODUCTOS-Copy" transform="translate(-183.000000, -786.000000)" fill="#808080">
            <g id="Front" transform="translate(0.000000, -1055.000000)">
                <g id="menu" transform="translate(183.000000, 1841.000000)">
                    <path d="M1.24528302,2.31428571 L31.754717,2.31428571 C32.4421132,2.31428571 33,1.86628571 33,1.31428571 C33,0.762285714 32.4421132,0.314285714 31.754717,0.314285714 L1.24528302,0.314285714 C0.557886792,0.314285714 0,0.762285714 0,1.31428571 C0,1.86628571 0.557886792,2.31428571 1.24528302,2.31428571 L1.24528302,2.31428571 Z" id="Shape"></path>
                    <path d="M1.24528302,11.7428571 L31.754717,11.7428571 C32.4421132,11.7428571 33,11.2948571 33,10.7428571 C33,10.1908571 32.4421132,9.74285714 31.754717,9.74285714 L1.24528302,9.74285714 C0.557886792,9.74285714 0,10.1908571 0,10.7428571 C0,11.2948571 0.557886792,11.7428571 1.24528302,11.7428571 L1.24528302,11.7428571 Z" id="Shape"></path>
                    <path d="M1.24528302,21.1714286 L31.754717,21.1714286 C32.4421132,21.1714286 33,20.7234286 33,20.1714286 C33,19.6194286 32.4421132,19.1714286 31.754717,19.1714286 L1.24528302,19.1714286 C0.557886792,19.1714286 0,19.6194286 0,20.1714286 C0,20.7234286 0.557886792,21.1714286 1.24528302,21.1714286 L1.24528302,21.1714286 Z" id="Shape"></path>
                </g>
            </g>
        </g>
    </g>
</svg>