<?xml version="1.0" encoding="UTF-8" standalone="no"?>
<svg width="33px" height="30px" viewBox="0 0 33 30" version="1.1" xmlns="http://www.w3.org/2000/svg" xmlns:xlink="http://www.w3.org/1999/xlink">
    <!-- Generator: Sketch 3.7.2 (28276) - http://www.bohemiancoding.com/sketch -->
    <title>presentacion</title>
    <desc>Created with Sketch.</desc>
    <defs></defs>
    <g id="Original" stroke="none" stroke-width="1" fill="none" fill-rule="evenodd">
        <g id="01-PRODUCTOS" transform="translate(-785.000000, -1519.000000)" fill="#8B8B8B">
            <g id="Front" transform="translate(0.000000, -1055.000000)">
                <g id="presentacion" transform="translate(785.000000, 2574.000000)">
                    <g id="Capa_1">
                        <path d="M32.291411,6.59308475 L29.1559049,6.59308475 L29.1559049,2.49722034 C29.1559049,1.1720339 28.0826963,0.0938644068 26.7637086,0.0938644068 L6.13496319,0.0938644068 C4.81607669,0.0938644068 3.74296933,1.1720339 3.74296933,2.49722034 L3.74296933,6.59308475 L0.607361963,6.59308475 C0.271996933,6.59308475 0,6.86633898 0,7.20325424 L0,14.4301017 C0,16.9924068 0.879763804,18.4734915 2.85257669,19.2321356 C3.12781288,19.338 3.42623006,19.4271864 3.74307055,19.5049831 L3.74307055,27.5028814 C3.74307055,28.8280678 4.81607669,29.9062373 6.13506442,29.9062373 L26.7638098,29.9062373 C28.0827975,29.9062373 29.1560061,28.8280678 29.1560061,27.5028814 L29.1560061,19.5049831 C29.4727454,19.4270847 29.7711626,19.3378983 30.0462975,19.2321356 C32.0191104,18.4734915 32.8988742,16.9925085 32.8988742,14.4301017 L32.8988742,7.20325424 C32.898773,6.86633898 32.6267761,6.59308475 32.291411,6.59308475 L32.291411,6.59308475 Z M15.1592485,6.23267797 C13.9882546,6.23267797 13.147362,7.11528814 13.0428957,8.41159322 C13.0357086,8.44922034 13.0319632,8.4879661 13.0319632,8.52772881 L13.0319632,10.4493559 C13.0319632,10.6555932 12.9774018,11.6845424 11.8991319,11.6845424 C10.8211656,11.6845424 10.7666043,10.6556949 10.7666043,10.4493559 L10.7666043,1.31420339 L22.1324724,1.31420339 L22.1324724,8.29901695 C22.1324724,8.95667797 22.0474417,8.96827119 21.4942362,9.04372881 C20.8543804,9.13108475 19.6631411,9.29369492 19.6631411,11.3245424 L19.6631411,13.306678 C19.6631411,13.5129153 19.6056442,14.5417627 18.4703834,14.5417627 C17.3352239,14.5417627 17.277727,13.5130169 17.277727,13.306678 L17.277727,10.1282034 L17.2864325,8.68820339 C17.2864325,7.24240678 16.4116288,6.23267797 15.1592485,6.23267797 L15.1592485,6.23267797 Z M4.95779448,2.49722034 C4.95779448,1.84494915 5.48589571,1.31420339 6.13506442,1.31420339 L9.55177914,1.31420339 L9.55177914,10.4492542 C9.55177914,11.6694915 10.3580521,12.9047797 11.8990307,12.9047797 C13.4402117,12.9047797 14.2465859,11.6695932 14.2465859,10.4492542 L14.2465859,8.68820339 C14.2465859,8.56179661 14.2721963,7.45301695 15.1592485,7.45301695 C16.0460982,7.45301695 16.0717086,8.56169492 16.0717086,8.68444068 L16.0630031,10.1244407 L16.0630031,13.3065763 C16.0630031,14.5267119 16.8899264,15.762 18.4703834,15.762 C20.0509417,15.762 20.877865,14.5268136 20.877865,13.3065763 L20.877865,11.3244407 C20.877865,10.3593559 21.0743466,10.3325085 21.6577178,10.2528814 C22.2481748,10.172339 23.3471963,10.0222373 23.3471963,8.29891525 L23.3471963,1.31420339 L26.7638098,1.31420339 C27.4130798,1.31420339 27.9412822,1.84494915 27.9412822,2.49722034 L27.9412822,18.5006441 C26.5587239,18.7071864 24.7920092,18.7452203 22.6592577,18.7501017 L22.6592577,18.0109831 C22.6592577,17.3978644 22.1532239,16.8989492 21.5312853,16.8989492 L11.367589,16.8989492 C10.7455491,16.8989492 10.2395153,17.3977627 10.2395153,18.0109831 L10.2395153,18.7501017 C8.10686503,18.7452203 6.34035276,18.7072881 4.95769325,18.5006441 L4.95769325,2.49722034 L4.95779448,2.49722034 Z M11.4542393,18.1193898 L21.4444325,18.1193898 L21.4444325,20.6024746 L11.4542393,20.6024746 L11.4542393,18.1193898 L11.4542393,18.1193898 Z M3.28684049,18.0924407 C2.21059509,17.6786441 1.21472393,16.9484746 1.21472393,14.4301017 L1.21472393,7.81342373 L3.74307055,7.81342373 L3.74307055,18.2430508 C3.58404294,18.196678 3.43017791,18.1475593 3.28684049,18.0924407 L3.28684049,18.0924407 Z M27.941181,27.5027797 C27.941181,28.1550508 27.4129785,28.6857966 26.7637086,28.6857966 L6.13496319,28.6857966 C5.48579448,28.6857966 4.95769325,28.1550508 4.95769325,27.5027797 L4.95769325,19.7311525 C6.39410429,19.9278305 8.15140491,19.9655593 10.2395153,19.9704407 L10.2395153,20.7107797 C10.2395153,21.3238983 10.7455491,21.8228136 11.367589,21.8228136 L21.5312853,21.8228136 C22.1532239,21.8228136 22.6592577,21.324 22.6592577,20.7107797 L22.6592577,19.9704407 C24.7473681,19.9655593 26.5046687,19.9278305 27.9412822,19.7311525 L27.9412822,27.5027797 L27.941181,27.5027797 Z M31.6840491,14.4301017 C31.6840491,16.9484746 30.6881779,17.6785424 29.6120337,18.0924407 C29.4686963,18.1475593 29.3147301,18.1965763 29.1559049,18.2429492 L29.1559049,7.81342373 L31.6840491,7.81342373 L31.6840491,14.4301017 L31.6840491,14.4301017 Z" id="Shape"></path>
                    </g>
                </g>
            </g>
        </g>
    </g>
</svg>