<?xml version="1.0" encoding="UTF-8" standalone="no"?>
<svg width="29px" height="25px" viewBox="0 0 29 25" version="1.1" xmlns="http://www.w3.org/2000/svg" xmlns:xlink="http://www.w3.org/1999/xlink">
    <!-- Generator: Sketch 3.7.2 (28276) - http://www.bohemiancoding.com/sketch -->
    <title>productos</title>
    <desc>Created with Sketch.</desc>
    <defs></defs>
    <g id="Original" stroke="none" stroke-width="1" fill="none" fill-rule="evenodd">
        <g id="00-HOME" transform="translate(-500.000000, -37.000000)" fill="#4A4A4A">
            <g id="menu_producto" transform="translate(500.000000, 37.000000)">
                <g id="productos">
                    <path d="M21.794225,1.41286765 L21.888475,1.41286765 C22.271275,1.41286765 22.5804875,1.09889706 22.5804875,0.711397059 C22.5804875,0.323529412 22.2709125,0.00992647059 21.888475,0.00992647059 L21.794225,0.00992647059 L0.8297625,0 L0.6912875,0.0102941176 C0.309575,0.0102941176 0,0.324264706 0,0.711764706 C0,1.09926471 0.309575,1.41323529 0.6912875,1.41323529 L0.8297625,1.41323529 L0.8297625,24.8058824 L21.794225,24.8058824 L21.794225,12.925 C23.4896375,13.4922794 25.097325,13.8389706 26.3628125,13.8389706 C27.5938625,13.8389706 28.50265,13.5150735 28.855725,12.7625 C29.7768375,10.7974265 26.076075,7.70772059 21.794225,5.54007353 L21.794225,1.41286765 Z M1.87775,23.7426471 L1.87775,5.64154415 C1.8125,4.96323523 3.08125002,4.96323523 2.9699625,5.64926471 L2.9699625,12.9786765 C2.9699625,13.2963235 3.2237125,13.5544118 3.538,13.5544118 C3.8512,13.5544118 4.10495,13.2963235 4.10495,12.9786765 L4.10495,5.64154412 C4.16874993,4.7794117 5.25625011,4.41176473 5.25625011,5.51470581 C5.25624997,7.0830881 6.32018741,6.0661764 6.32018741,5.88235287 L6.3201875,10.1485294 C6.3201875,10.4661765 6.52500021,10.8455874 7.06875011,10.8455882 C7.6125,10.8455889 7.817675,10.4661765 7.817675,10.1485294 L7.817675,3.88639706 C7.8176751,3.30882352 8.33895,2.90735294 9.0215375,3.12022059 C9.7044875,3.33272059 10.1597875,3.90625 10.1597875,3.90625 C10.1293375,4.01139706 10.105775,4.12426471 10.105775,4.24301471 C10.105775,4.65183824 10.32835,5.00514706 10.6549625,5.19448529 C10.859775,5.93529412 11.4727625,6.78713235 12.480875,7.71691176 C13.90695,9.03272059 15.9815375,10.3790441 18.322925,11.5084559 C19.1222375,11.89375 19.9375,12.2415441 20.7462375,12.5492647 L20.7462375,23.7426471 L1.87775,23.7426471 Z M20.745875,11.4139706 C20.1144,11.1632353 19.4557375,10.8783088 18.7735125,10.5485294 C16.5231125,9.46286765 14.5380625,8.17794118 13.1859375,6.93014706 C12.3906125,6.19669118 11.96105,5.60955882 11.764575,5.17426471 C12.07125,4.97977941 12.276425,4.63676471 12.276425,4.24301471 C12.276425,3.63933824 11.7972,3.15036765 11.2023375,3.14375 L12.6226125,1.06323529 L20.745875,1.06323529 L20.745875,11.4139706 L20.745875,11.4139706 Z M27.9092375,12.3055147 C27.5844375,12.9959559 25.197375,12.9871324 21.794225,11.8025735 L21.794225,6.73198529 C26.096375,9.00036765 28.2934875,11.4867647 27.9092375,12.3055147 L27.9092375,12.3055147 Z" id="Shape"></path>
                </g>
            </g>
        </g>
    </g>
</svg>