<?xml version="1.0" encoding="UTF-8" standalone="no"?>
<svg width="24px" height="31px" viewBox="0 0 24 31" version="1.1" xmlns="http://www.w3.org/2000/svg" xmlns:xlink="http://www.w3.org/1999/xlink">
    <!-- Generator: Sketch 3.7.2 (28276) - http://www.bohemiancoding.com/sketch -->
    <title>rendimiento</title>
    <desc>Created with Sketch.</desc>
    <defs></defs>
    <g id="Original" stroke="none" stroke-width="1" fill="none" fill-rule="evenodd">
        <g id="01-PRODUCTOS" transform="translate(-209.000000, -1517.000000)" fill="#8B8B8B">
            <g id="Front" transform="translate(0.000000, -1055.000000)">
                <g id="rendimiento" transform="translate(209.000000, 2572.000000)">
                    <g id="Capa_1">
                        <g id="Group">
                            <path d="M5.97204706,7.85366063 C7.55294118,8.27861312 9.69374118,8.51265611 12,8.51265611 C14.3062588,8.51265611 16.4470588,8.27861312 18.0279529,7.85366063 C19.9664471,7.33262217 20.9493176,6.55888462 20.9493176,5.55383937 C20.9493176,4.54886425 19.9664471,3.77505656 18.0279529,3.2540181 C16.4469882,2.82906561 14.3062588,2.59502262 12,2.59502262 C9.69374118,2.59502262 7.55301176,2.82906561 5.97204706,3.2540181 C4.03355294,3.77505656 3.05068235,4.54886425 3.05068235,5.55383937 C3.05068235,6.55881448 4.03355294,7.33255204 5.97204706,7.85366063 L5.97204706,7.85366063 Z M6.34072941,4.60805882 C7.80487059,4.21445701 9.81472941,3.99773756 12,3.99773756 C14.1852706,3.99773756 16.1951294,4.21445701 17.6592706,4.60805882 C19.2110118,5.02515611 19.5375529,5.481319 19.5375529,5.55383937 C19.5375529,5.62635973 19.2110824,6.08252262 17.6592706,6.49961991 C16.1951294,6.89315158 14.1852706,7.10994118 12,7.10994118 C9.81472941,7.10994118 7.80487059,6.89322172 6.34072941,6.49961991 C4.78898824,6.08252262 4.46244706,5.62635973 4.46244706,5.55383937 C4.46244706,5.481319 4.78891765,5.02508597 6.34072941,4.60805882 L6.34072941,4.60805882 Z" id="Shape"></path>
                            <path d="M20.2663059,1.47881222 C18.0466588,0.525176471 15.1109647,0 12,0 C8.88903529,0 5.95334118,0.525176471 3.73369412,1.47881222 C1.326,2.51331448 0,3.96049548 0,5.55383937 L0,23.2626244 C0,25.3922964 1.29232941,27.3701946 3.63889412,28.8321041 C5.88296471,30.2300498 8.85232941,31 12,31 C15.1476706,31 18.1170353,30.2300498 20.3611059,28.8320339 C22.7076706,27.3701946 24,25.3922262 24,23.2625543 L24,5.55383937 C24,3.96049548 22.674,2.51331448 20.2663059,1.47881222 L20.2663059,1.47881222 Z M4.29402353,2.76636425 C6.34072941,1.88700226 9.07743529,1.40271493 12,1.40271493 C14.9225647,1.40271493 17.6592706,1.88700226 19.7059765,2.76636425 C21.5376706,3.55335747 22.5882353,4.56927376 22.5882353,5.55383937 C22.5882353,6.58125792 21.4615765,7.62901584 19.4971765,8.42835294 C19.2320471,8.53622172 19.0588235,8.79270814 19.0588235,9.07738914 L19.0588235,17.4867353 C19.0588235,17.7188145 18.8688706,17.9075498 18.6352941,17.9075498 C18.4017176,17.9075498 18.2117647,17.7188145 18.2117647,17.4867353 L18.2117647,9.79123077 C18.2117647,9.57619457 18.1125176,9.37308145 17.9424,9.24010407 C17.7722824,9.1071267 17.5501412,9.05894344 17.3399294,9.10958145 C16.6491529,9.27559276 15.9145412,9.40927149 15.1563529,9.50690045 C14.8045412,9.55220814 14.5411765,9.84993439 14.5411765,10.2024367 L14.5411765,23.7990226 C14.5411765,24.0311018 14.3512235,24.2198371 14.1176471,24.2198371 C13.8840706,24.2198371 13.6941176,24.0311018 13.6941176,23.7990226 L13.6941176,10.3876652 C13.6941176,10.1971063 13.6161176,10.0147534 13.4779059,9.88254751 C13.3461176,9.75644344 13.1705647,9.68630769 12.9882353,9.68630769 C12.9794118,9.68630769 12.9705882,9.68644796 12.9617647,9.68679864 C12.6372,9.69886199 12.3135529,9.70503394 12,9.70503394 C9.07743529,9.70503394 6.34072941,9.22074661 4.29402353,8.34138462 C2.46232941,7.55425113 1.41176471,6.53833484 1.41176471,5.55383937 C1.41176471,4.56934389 2.46232941,3.55335747 4.29402353,2.76636425 L4.29402353,2.76636425 Z M19.6111765,27.6436538 C17.5888941,28.9034321 14.8858588,29.5972851 12,29.5972851 C9.11414118,29.5972851 6.41110588,28.9034321 4.38882353,27.6436538 C2.46903529,26.447629 1.41176471,24.8917376 1.41176471,23.2625543 L1.41176471,8.23372624 C2.00901176,8.7516086 2.78738824,9.22214932 3.73369412,9.62872624 C5.95334118,10.5824321 8.88903529,11.1076086 12,11.1076086 C12.0933882,11.1076086 12.1875529,11.1071176 12.2823529,11.1060656 L12.2823529,23.7989525 C12.2823529,24.8044186 13.1056941,25.6224819 14.1176471,25.6224819 C15.1296,25.6224819 15.9529412,24.8044186 15.9529412,23.7989525 L15.9529412,10.8105136 C16.2394588,10.7659774 16.5220235,10.7164615 16.8,10.6622466 L16.8,17.4867353 C16.8,18.4922014 17.6233412,19.3102647 18.6352941,19.3102647 C19.6472471,19.3102647 20.4705882,18.4922014 20.4705882,17.4867353 L20.4705882,9.53867195 C21.3252,9.15355656 22.0348235,8.71555882 22.5882353,8.23667195 L22.5882353,23.2624842 C22.5882353,24.8917376 21.5309647,26.447629 19.6111765,27.6436538 L19.6111765,27.6436538 Z" id="Shape"></path>
                        </g>
                    </g>
                </g>
            </g>
        </g>
    </g>
</svg>