<?xml version="1.0" encoding="UTF-8" standalone="no"?>
<svg width="29px" height="33px" viewBox="0 0 29 33" version="1.1" xmlns="http://www.w3.org/2000/svg" xmlns:xlink="http://www.w3.org/1999/xlink">
    <!-- Generator: Sketch 3.7.2 (28276) - http://www.bohemiancoding.com/sketch -->
    <title>resistencia</title>
    <desc>Created with Sketch.</desc>
    <defs></defs>
    <g id="Original" stroke="none" stroke-width="1" fill="none" fill-rule="evenodd">
        <g id="01-PRODUCTOS" transform="translate(-787.000000, -1420.000000)" fill="#8B8B8B">
            <g id="Front" transform="translate(0.000000, -1055.000000)">
                <g id="resistencia" transform="translate(787.000000, 2475.000000)">
                    <g id="Capa_1">
                        <path d="M14.8632342,32.9073034 L14.0449937,32.9073034 C12.8622342,32.9073034 11.8999114,31.9352865 11.8999114,30.7406124 L12.3042595,19.0951348 L4.64624051,19.0951348 C3.30526582,19.0951348 2.21427848,17.9931573 2.21427848,16.6386742 L2.21427848,14.3846629 C2.19133544,14.3405393 2.17518354,14.2919663 2.16710759,14.2402416 L0.0633227848,0.534488764 C0.0429493671,0.400820225 0.0813101266,0.264741573 0.168310127,0.161848315 C0.255493671,0.0591404494 0.382873418,0 0.516860759,0 L28.3913671,0 C28.5251709,0 28.6527342,0.0591404494 28.7397342,0.161848315 C28.8269177,0.264741573 28.8652785,0.400820225 28.8447215,0.534488764 L26.7409367,14.2402416 C26.7330443,14.2919663 26.7167089,14.3405393 26.6937658,14.3846629 L26.6937658,16.6386742 C26.6937658,17.9931573 25.6027785,19.0951348 24.2618038,19.0951348 L16.6036013,19.0951348 L17.0075823,30.7244831 C17.0083165,31.9352865 16.0459937,32.9073034 14.8632342,32.9073034 L14.8632342,32.9073034 Z M13.2227152,19.0951348 L12.8174494,30.756927 C12.8178165,31.4241573 13.3684494,31.9803371 14.0449937,31.9803371 L14.8632342,31.9803371 C15.539962,31.9803371 16.0905949,31.4241573 16.0905949,30.7406124 L15.6856962,19.0951348 L13.2227152,19.0951348 L13.2227152,19.0951348 Z M16.1287722,18.1681685 L24.2621709,18.1681685 C25.0971139,18.1681685 25.7764114,17.4820281 25.7764114,16.6386742 L25.7764114,14.6327191 L3.132,14.6327191 L3.132,16.6386742 C3.132,17.4820281 3.81129747,18.1681685 4.64624051,18.1681685 L16.1287722,18.1681685 L16.1287722,18.1681685 Z M3.01379747,13.7057528 L25.8944304,13.7057528 L27.8559684,0.926966292 L1.05225949,0.926966292 L3.01379747,13.7057528 L3.01379747,13.7057528 Z" id="Shape"></path>
                    </g>
                </g>
            </g>
        </g>
    </g>
</svg>