<svg id="Capa_2" data-name="Capa 2" xmlns="http://www.w3.org/2000/svg" viewBox="0 0 37 37"><defs><style>.cls-1{fill:#969696;fill-rule:evenodd;}</style></defs><title>secado</title><path class="cls-1" d="M506.14,292.28a8.14,8.14,0,1,0,8.14,8.14A8.16,8.16,0,0,0,506.14,292.28Zm0,15.1a7,7,0,1,1,7-7A7,7,0,0,1,506.14,307.38Z" transform="translate(-488 -282.28)"/><path class="cls-1" d="M506,282.78a0.5,0.5,0,1,1,1,0v6a0.5,0.5,0,1,1-1,0v-6Z" transform="translate(-488 -282.28)"/><path class="cls-1" d="M506,312.78a0.5,0.5,0,1,1,1,0v6a0.5,0.5,0,1,1-1,0v-6Z" transform="translate(-488 -282.28)"/><path class="cls-1" d="M524.5,300.28a0.5,0.5,0,1,1,0,1h-6a0.5,0.5,0,1,1,0-1h6Z" transform="translate(-488 -282.28)"/><path class="cls-1" d="M494.5,300.28a0.5,0.5,0,1,1,0,1h-6a0.5,0.5,0,1,1,0-1h6Z" transform="translate(-488 -282.28)"/><path class="cls-1" d="M518.87,287.7a0.5,0.5,0,1,1,.71.71l-4.24,4.24a0.5,0.5,0,1,1-.71-0.71Z" transform="translate(-488 -282.28)"/><path class="cls-1" d="M497.66,308.91a0.5,0.5,0,1,1,.71.71l-4.24,4.24a0.5,0.5,0,1,1-.71-0.71Z" transform="translate(-488 -282.28)"/><path class="cls-1" d="M519.58,313.15a0.5,0.5,0,1,1-.71.71l-4.24-4.24a0.5,0.5,0,1,1,.71-0.71Z" transform="translate(-488 -282.28)"/><path class="cls-1" d="M498.37,291.94a0.5,0.5,0,1,1-.71.71l-4.24-4.24a0.5,0.5,0,1,1,.71-0.71Z" transform="translate(-488 -282.28)"/></svg>