<?xml version="1.0" encoding="UTF-8" standalone="no"?>
<svg width="31px" height="33px" viewBox="0 0 31 33" version="1.1" xmlns="http://www.w3.org/2000/svg" xmlns:xlink="http://www.w3.org/1999/xlink">
    <!-- Generator: Sketch 3.7.2 (28276) - http://www.bohemiancoding.com/sketch -->
    <title>uso</title>
    <desc>Created with Sketch.</desc>
    <defs></defs>
    <g id="Original" stroke="none" stroke-width="1" fill="none" fill-rule="evenodd">
        <g id="01-PRODUCTOS" transform="translate(-205.000000, -1416.000000)" fill="#8B8B8B">
            <g id="Front" transform="translate(0.000000, -1055.000000)">
                <g id="uso" transform="translate(205.000000, 2471.000000)">
                    <g id="Capa_1">
                        <path d="M29.0974628,4.36615385 L27.3883495,4.36615385 L27.3883495,1.74260308 C27.3883495,0.749150769 26.6240841,0 25.6104142,0 L1.80221359,0 C0.791653722,0 0,0.765396923 0,1.74260308 L0,8.11393846 C0,9.12678462 0.808508091,9.95076923 1.80221359,9.95076923 L25.6104142,9.95076923 C26.5907767,9.95076923 27.3883495,9.12678462 27.3883495,8.11393846 L27.3883495,5.58461538 L29.0974628,5.58461538 C29.4441812,5.58461538 29.6957929,5.80657846 29.6957929,6.11231077 L29.6957929,12.8532462 C29.6957929,13.1666954 29.4385631,13.4030769 29.0974628,13.4030769 L15.2422686,13.4030769 C14.2503689,13.4030769 13.4433657,14.2187354 13.4433657,15.2213262 L13.4433657,16.2461538 L12.5506861,16.2461538 C12.2941586,16.2461538 12.065822,16.4106462 11.9818511,16.6559631 L10.4666634,21.0831415 C10.4446926,21.1473138 10.4335566,21.2147354 10.4335566,21.2825631 L10.4335566,32.3907692 C10.4335566,32.7272677 10.7031262,33 11.0354984,33 L16.9545922,33 C17.2870647,33 17.556534,32.7272677 17.556534,32.3907692 L17.556534,21.2825631 C17.556534,21.2169692 17.546,21.1518831 17.525534,21.0897415 L16.0660259,16.6625631 C15.9840615,16.4138954 15.7541197,16.2461538 15.4950841,16.2461538 L14.6472492,16.2461538 L14.6472492,15.2213262 C14.6472492,14.8906154 14.91411,14.6215385 15.2422686,14.6215385 L29.0974628,14.6215385 C30.1080227,14.6215385 30.8996764,13.8448708 30.8996764,12.8532462 L30.8996764,6.11231077 C30.8996764,5.13317538 30.1080227,4.36615385 29.0974628,4.36615385 L29.0974628,4.36615385 Z M26.184466,8.11393846 C26.184466,8.41134462 25.9649579,8.73230769 25.6104142,8.73230769 L1.80221359,8.73230769 C1.47786731,8.73230769 1.2038835,8.44911692 1.2038835,8.11393846 L1.2038835,1.74260308 C1.2038835,1.43402769 1.44987702,1.21846154 1.80221359,1.21846154 L25.6104142,1.21846154 C25.9537217,1.21846154 26.184466,1.42905231 26.184466,1.74260308 L26.184466,8.11393846 L26.184466,8.11393846 Z M16.3527508,21.3814615 L16.3527508,31.7815385 L11.6375405,31.7815385 L11.6375405,21.3850154 L12.9792686,17.4646154 L15.0614854,17.4646154 L16.3527508,21.3814615 L16.3527508,21.3814615 Z" id="Shape"></path>
                    </g>
                </g>
            </g>
        </g>
    </g>
</svg>