<?xml version="1.0" encoding="UTF-8" standalone="no"?>
<svg width="218px" height="128px" viewBox="0 0 218 128" version="1.1" xmlns="http://www.w3.org/2000/svg" xmlns:xlink="http://www.w3.org/1999/xlink">
    <!-- Generator: Sketch 3.7.2 (28276) - http://www.bohemiancoding.com/sketch -->
    <title>Cibel</title>
    <desc>Created with Sketch.</desc>
    <defs>
        <radialGradient cx="50%" cy="50%" fx="50%" fy="50%" r="63.4038517%" id="radialGradient-1">
            <stop stop-color="#00ADEC" offset="0%"></stop>
            <stop stop-color="#035271" offset="100%"></stop>
        </radialGradient>
    </defs>
    <g id="Original" stroke="none" stroke-width="1" fill="none" fill-rule="evenodd">
        <g id="00-HOME" transform="translate(-187.000000, -4841.000000)">
            <g id="Footer" transform="translate(-2.000000, 4783.000000)">
                <g id="Cibel" transform="translate(190.000000, 59.000000)">
                    <ellipse id="Oval-1" stroke="#979797" stroke-width="0.5" fill="url(#radialGradient-1)" cx="108" cy="63" rx="108" ry="63"></ellipse>
                    <ellipse id="Oval-1-Copy-2" stroke="#2EA4C4" cx="107.590909" cy="61.3636364" rx="102.272727" ry="58.0909091"></ellipse>
                    <ellipse id="Oval-1-Copy" stroke="#000000" stroke-width="0.5" cx="109.227273" cy="62.1818182" rx="102.272727" ry="58.0909091"></ellipse>
                    <path d="M46.6363636,35.1818182 C51.9545455,35.1818182 60.5454545,37.6363636 64.2272727,44.5909091 C65.6673276,47.3110127 66.3291927,50.3884804 65.8636364,53.1818182 L51.1363636,53.1818182 C51.1363636,48.6818182 48.2727273,47.0454545 45,47.0454545 C41.7272727,47.0454545 33.9545455,50.3181818 33.9545455,61.7727273 C33.9545455,66.291381 35.5909091,71.1818182 41.7272727,71.1818182 C49.0909091,70.7727273 49.5,65.8636364 50.3181818,64.2272727 L64.2272727,64.2272727 C64.2272727,69.9545455 61.3636364,74.8636364 57.2727273,77.7272727 C53.9614046,80.0451986 47.8636364,82.6363636 40.5,82.6363636 C33.5454681,82.6363636 28.2272727,81 23.7272727,76.0909091 C19.2272727,71.1818182 17.5909091,63.8181818 19.2272727,55.6363636 C20.0453956,51.5457493 22.9090909,44.1818182 29.8636364,39.6818182 C36.8181818,35.1818182 41.3181818,35.1818182 46.6363636,35.1818182 Z M79.7815444,81 L67.1708377,81 L75.0486343,43.9013672 L87.6593409,43.9013672 L79.7815444,81 Z M103.727269,53.5909091 L102.506151,58.9466442 L108.912596,58.9466442 C110.057031,58.9466442 111.033325,58.7461494 111.841509,58.3451539 C112.649692,57.9441584 113.171759,57.2328141 113.407725,56.2110995 C113.65549,55.0795231 113.354638,54.3324742 112.50516,53.9699303 C111.73827,53.7172482 110.723632,53.5909091 109.461214,53.5909091 L103.727269,53.5909091 Z M100.231722,65.739391 L98.5963125,72.4090909 L105.729061,72.4090909 C107.003241,72.4090909 108.027825,72.2620082 108.802842,71.9678385 C110.234653,71.4247559 111.141015,70.3838632 111.521956,68.8451291 C111.837217,67.5439937 111.43001,66.6501836 110.300325,66.1636721 C109.669802,65.8921308 108.724033,65.7507052 107.462988,65.739391 L100.231722,65.739391 Z M126.409091,53.5909091 C125.922494,55.8561015 124.988466,57.5331962 123.545455,58.9090909 C122.756832,59.6809343 120.421349,60.7260266 119.045455,61.3636364 C120.790492,62.0515837 123.308546,63.9611964 123.954545,65.4545455 C124.600545,66.9478945 124.816675,69.0508594 124.363636,71.1818182 C123.893819,73.3798938 123.385661,74.7549629 121.909091,76.5 C120.952676,77.657765 120.270336,78.1659229 119.045455,78.9545455 C117.66956,79.8606224 115.413583,80.255325 113.727273,80.5909091 C112.040963,80.9264932 109.194072,81 107.298022,81 L84.7580713,81 L92.6358679,43.9013672 L116.383915,43.9013672 C120.9143,43.968484 123.839482,45.2964183 125.181818,47.8636364 C125.998354,49.4300949 126.862129,51.3928335 126.409091,53.5909091 Z M166.477096,53.7431197 L145.209163,53.7431197 L144.366212,58.3481889 L164.02335,58.3481889 L162.639073,67.2459162 L142.163753,67.2459162 L140.968441,71.8757546 L163.142446,71.8757546 L160.914818,81 L126.255949,81 L134.133746,43.9013672 L168.704724,43.9013672 L166.477096,53.7431197 Z M173.278552,43.9013672 L186.757778,43.9013672 L181.10761,71.8757546 L198.662563,71.8757546 L196.434936,81 L165.400756,81 L173.278552,43.9013672 Z" id="CIBEL" stroke="#000000" stroke-width="0.5" fill="#FFFFFF"></path>
                    <text id="PINTURAS" font-family="OpenSans, Open Sans" font-size="14.7272727" font-weight="normal" letter-spacing="0.119999997" fill="#FFFFFF">
                        <tspan x="79.3636364" y="32.3636364">P</tspan>
                        <tspan x="88.3502024" y="32.3636364" font-size="11.4545455">INTURA</tspan>
                        <tspan x="129.904986" y="32.3636364" font-size="11.4545455">S</tspan>
                    </text>
                </g>
            </g>
        </g>
    </g>
</svg>