<?xml version="1.0" encoding="UTF-8" standalone="no"?>
<svg width="105px" height="62px" viewBox="0 0 105 62" version="1.1" xmlns="http://www.w3.org/2000/svg" xmlns:xlink="http://www.w3.org/1999/xlink">
    <!-- Generator: Sketch 3.7.2 (28276) - http://www.bohemiancoding.com/sketch -->
    <title>Logo_header</title>
    <desc>Created with Sketch.</desc>
    <defs>
        <radialGradient cx="50%" cy="50%" fx="50%" fy="50%" r="63.4038517%" id="radialGradient-1">
            <stop stop-color="#00ADEC" offset="0%"></stop>
            <stop stop-color="#035271" offset="100%"></stop>
        </radialGradient>
        <filter x="-50%" y="-50%" width="200%" height="200%" filterUnits="objectBoundingBox" id="filter-2">
            <feOffset dx="0" dy="1" in="SourceAlpha" result="shadowOffsetOuter1"></feOffset>
            <feGaussianBlur stdDeviation="1.5" in="shadowOffsetOuter1" result="shadowBlurOuter1"></feGaussianBlur>
            <feColorMatrix values="0 0 0 0 0   0 0 0 0 0   0 0 0 0 0  0 0 0 0.5 0" type="matrix" in="shadowBlurOuter1" result="shadowMatrixOuter1"></feColorMatrix>
            <feMerge>
                <feMergeNode in="shadowMatrixOuter1"></feMergeNode>
                <feMergeNode in="SourceGraphic"></feMergeNode>
            </feMerge>
        </filter>
    </defs>
    <g id="Original" stroke="none" stroke-width="1" fill="none" fill-rule="evenodd">
        <g id="00-HOME" transform="translate(-168.000000, -19.000000)">
            <g id="Logo_header" transform="translate(155.000000, 11.000000)">
                <g transform="translate(14.000000, 9.000000)">
                    <g id="Cibel">
                        <ellipse id="Oval-1" stroke="#979797" stroke-width="0.5" fill="url(#radialGradient-1)" cx="51.5" cy="30" rx="51.5" ry="30"></ellipse>
                        <ellipse id="Oval-1-Copy-2" stroke="#2EA4C4" cx="51.3049242" cy="29.2207792" rx="48.7689394" ry="27.6623377"></ellipse>
                        <ellipse id="Oval-1-Copy" stroke="#000000" stroke-width="0.5" cx="52.0852273" cy="29.6103896" rx="48.7689394" ry="27.6623377"></ellipse>
                        <path d="M22.2386364,16.7532468 C24.7746212,16.7532468 28.8712121,17.9220779 30.6268939,21.2337662 C31.3135868,22.5290537 31.6291984,23.9945145 31.407197,25.3246753 L24.3844697,25.3246753 C24.3844697,23.1818182 23.0189394,22.4025974 21.4583333,22.4025974 C19.8977273,22.4025974 16.1912879,23.961039 16.1912879,29.4155844 C16.1912879,31.5673243 16.9715909,33.8961039 19.8977273,33.8961039 C23.4090909,33.7012987 23.6041667,31.3636364 23.9943182,30.5844156 L30.6268939,30.5844156 C30.6268939,33.3116883 29.2613636,35.6493506 27.3106061,37.012987 C25.7315957,38.1167612 22.8238636,39.3506494 19.3125,39.3506494 C15.9962186,39.3506494 13.4602273,38.5714286 11.3143939,36.2337662 C9.16856061,33.8961039 8.38825758,30.3896104 9.16856061,26.4935065 C9.55868401,24.5455949 10.9242424,21.038961 14.2405303,18.8961039 C17.5568182,16.7532468 19.7026515,16.7532468 22.2386364,16.7532468 Z M38.0439772,38.5714286 L32.0305384,38.5714286 L35.7870802,20.9054129 L41.8005191,20.9054129 L38.0439772,38.5714286 Z M49.4625402,25.5194805 L48.8802479,28.0698306 L51.9351729,28.0698306 C52.4808989,28.0698306 52.9464468,27.9743569 53.3318307,27.7834066 C53.7172145,27.5924564 53.9661631,27.253721 54.0786839,26.7671902 C54.1968307,26.2283443 54.0533688,25.8726068 53.6482939,25.6999668 C53.2826012,25.579642 52.7987689,25.5194805 52.1967825,25.5194805 L49.4625402,25.5194805 Z M47.7956821,31.3044719 L47.0158342,34.4805195 L50.4170984,34.4805195 C51.0246937,34.4805195 51.5132682,34.4104801 51.8828365,34.2703993 C52.5655983,34.0117885 52.9977988,33.5161253 53.179451,32.7833948 C53.3297839,32.1638065 53.1356068,31.7381827 52.5969141,31.5065105 C52.2962483,31.3772052 51.8452565,31.3098596 51.243925,31.3044719 L47.7956821,31.3044719 Z M60.2784091,25.5194805 C60.0463745,26.5981436 59.6009815,27.3967601 58.9128788,28.0519481 C58.5368227,28.4194925 57.4231434,28.9171555 56.7670455,29.2207792 C57.5991696,29.5483732 58.7999086,30.4577126 59.1079545,31.1688312 C59.4160005,31.8799498 59.5190625,32.8813616 59.3030303,33.8961039 C59.0789969,34.9428066 58.8366808,35.5976014 58.1325758,36.4285714 C57.6765077,36.9798881 57.3511326,37.221868 56.7670455,37.5974026 C56.1109475,38.0288678 55.0351806,38.2168214 54.2310606,38.3766234 C53.4269406,38.5364253 52.0693952,38.5714286 51.1652603,38.5714286 L40.4170433,38.5714286 L44.1735851,20.9054129 L55.4978853,20.9054129 C57.6582077,20.9373733 59.0530863,21.569723 59.6931818,22.7922078 C60.0825485,23.5381404 60.4944413,24.4727778 60.2784091,25.5194805 Z M79.3849117,25.5919617 L69.2432584,25.5919617 L68.8412957,27.7848519 L78.2148382,27.7848519 L77.554743,32.0218649 L67.7910489,32.0218649 L67.2210619,34.2265498 L77.7947776,34.2265498 L76.7325292,38.5714286 L60.2053833,38.5714286 L63.9619252,20.9054129 L80.4471602,20.9054129 L79.3849117,25.5919617 Z M82.6281986,20.9054129 L89.0557924,20.9054129 L86.361499,34.2265498 L94.7326112,34.2265498 L93.6703628,38.5714286 L78.8716567,38.5714286 L82.6281986,20.9054129 Z" id="CIBEL" stroke="#000000" stroke-width="0.5" fill="#FFFFFF"></path>
                        <text id="PINTURAS" font-family="OpenSans, Open Sans" font-size="7.01298701" font-weight="normal" letter-spacing="0.119999997" fill="#FFFFFF">
                            <tspan x="37.844697" y="14.7922078">P</tspan>
                            <tspan x="42.1868713" y="14.7922078" font-size="5.45454545">INTURA</tspan>
                            <tspan x="62.3520062" y="14.7922078" font-size="5.45454545">S</tspan>
                        </text>
                    </g>
                    <g id="Rainbow" filter="url(#filter-2)" transform="translate(9.363636, 30.389610)"></g>
                </g>
            </g>
        </g>
    </g>
</svg>